# xmcd
#
# Track frame offsets:
#	150
#	19222
#	35797
#	57222
#	73242
#	89147
#	119985
#	150932
#	168265
#	188057
#	204400
#	221550
#	237505
#
# Disc length: 3515 seconds
#
# Revision: 2
# Processed by: cddbd v1.4PL0 Copyright (c) Steve Scherf et al.
# Submitted via: dBpowerAMP V4.0
#
DISCID=c20db90d
DTITLE=Collard Greens and Gravy - Collard Greens and Gravy
DYEAR=1999
DGENRE=Blues
TTITLE0=I'm Going
TTITLE1=Circles Going Round in Squares
TTITLE2=She's Gonna Take Sick and Die
TTITLE3=You Got My Mind Messed Up
TTITLE4=Sick Bed Blues
TTITLE5=Out In The Desert
TTITLE6=St James Infirmary
TTITLE7=Gamblers Blues
TTITLE8=Get Right Church
TTITLE9=Luv Me Baby
TTITLE10=The Wind is Blowing
TTITLE11=Another Man Done Gone
TTITLE12=I Wanna Die Easy
EXTD=
EXTT0=
EXTT1=
EXTT2=
EXTT3=
EXTT4=
EXTT5=
EXTT6=
EXTT7=
EXTT8=
EXTT9=
EXTT10=
EXTT11=
EXTT12=
PLAYORDER=
